<?xml version="1.0" encoding="UTF-8"?>
<svg version="1.1" xmlns="http://www.w3.org/2000/svg" width="801" height="311">
<path d="M0 0 C13.2450554 -0.73583641 23.35355262 4.94004316 33.0625 13.625 C37.84033239 17.45235774 42.89062882 18.56422127 48.70996094 20.02270508 C68.27938496 25.02311312 90.9045706 35.22948328 103 52 C103.75 54.875 103.75 54.875 103 58 C97.52734826 64.87190929 88.08005396 70.28700997 79.4375 71.5 C74.59752009 70.79600292 69.79362045 69.97085984 65 69 C64.82912847 72.01779912 64.82912847 72.01779912 66 74.75 C67.55556814 79.80559644 67.70519395 83.94985665 65.5625 88.8125 C60.53264827 97.91917892 52.78930309 104.66608596 44 110 C43.26652344 110.44988281 42.53304687 110.89976562 41.77734375 111.36328125 C31.65745225 116.97001359 16.64623656 122.19522316 5 120 C4.34 119.34 3.68 118.68 3 118 C3.78761719 117.79246094 4.57523437 117.58492188 5.38671875 117.37109375 C18.97504037 113.52776965 32.19567763 107.80083383 39.5 95.0625 C42.03093709 89.3000986 41.71218333 84.29481294 39.875 78.375 C35.88707365 72.28667116 26.81504187 69.12634569 20.12890625 67.15234375 C17.41394566 66.60773798 14.75661505 66.26127258 12 66 C10.8759375 65.88011719 9.751875 65.76023437 8.59375 65.63671875 C-1.80243132 64.69880239 -11.39490918 64.58949911 -21 69 C-22.07121094 69.45052734 -22.07121094 69.45052734 -23.1640625 69.91015625 C-27.68427287 71.94014164 -29.75611266 73.40229425 -32 78 C-32.53632912 80.16969509 -32.98930467 82.36103122 -33.375 84.5625 C-35.30054752 94.12003532 -38.10227678 102.90519897 -45 110 C-45.99 109.67 -46.98 109.34 -48 109 C-48.09796875 107.741875 -48.1959375 106.48375 -48.296875 105.1875 C-49.76698593 84.23482759 -49.76698593 84.23482759 -58.73046875 65.69921875 C-60 64 -60 64 -61 61 C-61.66 61 -62.32 61 -63 61 C-63 60.34 -63 59.68 -63 59 C-63.66 59 -64.32 59 -65 59 C-65 58.34 -65 57.68 -65 57 C-65.82371094 56.62488281 -65.82371094 56.62488281 -66.6640625 56.2421875 C-69.44011254 54.76596022 -71.85053413 52.99890324 -74.375 51.125 C-77.43150497 48.86637785 -80.47204159 46.65096902 -83.6875 44.625 C-84.450625 44.08875 -85.21375 43.5525 -86 43 C-86 42.34 -86 41.68 -86 41 C-74.6996197 37.84819325 -63.0186952 41.3966649 -52.9140625 46.79296875 C-48.2733529 49.71945705 -43.87985471 53.12014529 -40 57 C-38.01633305 57.13306157 -38.01633305 57.13306157 -36 56 C-35.0532664 54.68133534 -34.12005682 53.34991296 -33.2734375 51.96484375 C-31.61209139 49.40147844 -29.76214311 47.02650883 -27.875 44.625 C-27.19179687 43.75101563 -26.50859375 42.87703125 -25.8046875 41.9765625 C-25.20914063 41.32429688 -24.61359375 40.67203125 -24 40 C-23.34 40 -22.68 40 -22 40 C-22 39.34 -22 38.68 -22 38 C-19.8663648 36.30687656 -17.73591044 34.73495854 -15.5 33.1875 C-14.8615918 32.73971191 -14.22318359 32.29192383 -13.56542969 31.83056641 C-0.90260947 23 -0.90260947 23 2 23 C4.01676421 17.42424011 4.42172112 12.811003 3 7 C1.55269907 4.67780342 1.55269907 4.67780342 0 3 C0 2.01 0 1.02 0 0 Z M23 45 C24 47 24 47 24 47 Z M30 45 C29.01 46.485 29.01 46.485 28 48 C28.33 48.99 28.66 49.98 29 51 C29.66 49.02 30.32 47.04 31 45 C30.67 45 30.34 45 30 45 Z M37 46 C34.79086 49.31371 34.77518447 50.3446021 34.875 54.1875 C34.89304687 55.08855469 34.91109375 55.98960937 34.9296875 56.91796875 C34.95289063 57.60503906 34.97609375 58.29210937 35 59 C35.33 59 35.66 59 36 59 C36.66 54.71 37.32 50.42 38 46 C37.67 46 37.34 46 37 46 Z M22 48 C23 50 23 50 23 50 Z M56 48 C57.24976756 51.65316671 57.67098753 52.78065836 61 55 C61.99 55 62.98 55 64 55 C63.72965366 52.56282742 63.72965366 52.56282742 63 50 C60.04622502 47.63019987 60.04622502 47.63019987 56 48 Z M27 52 C28 55 28 55 28 55 Z M21 55 C22 57 22 57 22 57 Z M28 56 C29 58 29 58 29 58 Z " fill="#5282F6" transform="translate(160,102)"/>
<path d="M0 0 C1.04907227 2.02783203 1.04907227 2.02783203 1.81640625 4.5078125 C2.10580078 5.41273438 2.39519531 6.31765625 2.69335938 7.25 C2.98017578 8.19875 3.26699219 9.1475 3.5625 10.125 C4.14578367 11.98219591 4.73040095 13.83897355 5.31640625 15.6953125 C5.59500488 16.58895508 5.87360352 17.48259766 6.16064453 18.40332031 C7.31891607 21.98661762 8.64082272 25.48844776 10 29 C12.16011365 26.83988635 12.63323174 25.59735058 13.5859375 22.74609375 C13.87726563 21.89080078 14.16859375 21.03550781 14.46875 20.15429688 C14.7678125 19.25775391 15.066875 18.36121094 15.375 17.4375 C17.60551628 10.78049455 20.05970562 4.37927305 23 -2 C25.97 -1.67 28.94 -1.34 32 -1 C35.01918113 5.97876293 37.74701468 12.94837459 40.0078125 20.2109375 C41.10185049 23.28630413 42.49047362 26.1088732 44 29 C44.64413128 27.18784401 45.28792332 25.37556686 45.93017578 23.56274414 C46.4790068 22.01447845 47.02947658 20.46679274 47.58154297 18.91967773 C49.54023387 13.40145384 51.31997606 7.84941622 52.9453125 2.22265625 C54 0 54 0 55.8515625 -1.33984375 C59.43035702 -2.4395097 62.34028511 -1.60995248 66 -1 C65.32681989 4.56867334 63.52679484 9.53493604 61.62109375 14.7734375 C61.12380516 16.1590538 61.12380516 16.1590538 60.61647034 17.57266235 C59.56157905 20.50851578 58.49964923 23.44176559 57.4375 26.375 C56.71893434 28.37092579 56.00083021 30.36701781 55.28320312 32.36328125 C53.52747549 37.24412903 51.76543304 42.12265477 50 47 C46.04 47 42.08 47 38 47 C36.89521463 44.16690656 35.7911567 41.3335331 34.6875 38.5 C34.37876953 37.70851562 34.07003906 36.91703125 33.75195312 36.1015625 C33.13378436 34.51384484 32.51773289 32.92530119 31.90380859 31.3359375 C31.30844587 29.79719342 30.70734304 28.2606561 30.10009766 26.7265625 C28.9133056 23.67899771 28 21.3009833 28 18 C27.34 18 26.68 18 26 18 C25.4740625 19.8871875 25.4740625 19.8871875 24.9375 21.8125 C22.39171342 30.35200743 19.12537533 38.65995735 16 47 C12.04 47 8.08 47 4 47 C2.19937155 42.20011466 0.40308406 37.39863429 -1.3894043 32.59570312 C-1.99827393 30.96603883 -2.60827523 29.33679684 -3.21948242 27.70800781 C-12 4.30286693 -12 4.30286693 -12 -1 C-3.68172531 -2.38637911 -3.68172531 -2.38637911 0 0 Z " fill="#4E7FF4" transform="translate(295,143)"/>
<path d="M0 0 C3.63 0 7.26 0 11 0 C11.06058594 1.26457031 11.12117187 2.52914062 11.18359375 3.83203125 C11.26800904 5.49219871 11.35265655 7.15235437 11.4375 8.8125 C11.47681641 9.64587891 11.51613281 10.47925781 11.55664062 11.33789062 C11.61948242 12.54155273 11.61948242 12.54155273 11.68359375 13.76953125 C11.72025146 14.50792236 11.75690918 15.24631348 11.79467773 16.00708008 C11.94842141 18.207495 11.94842141 18.207495 13 21 C13.928125 20.505 14.85625 20.01 15.8125 19.5 C22.00139451 16.8637569 28.44135596 17.28693527 34.8125 19.0625 C39.867335 22.13504676 43.15373092 25.49954509 45.06665039 31.15161133 C46.03776032 35.1556934 46.22835252 38.57011156 46.1953125 42.68359375 C46.1924826 43.38396255 46.18965271 44.08433136 46.18673706 44.80592346 C46.17564885 47.0166317 46.15056703 49.22691671 46.125 51.4375 C46.11495546 52.94725972 46.1058322 54.45702588 46.09765625 55.96679688 C46.07574714 59.64466597 46.04129758 63.3222916 46 67 C42.04 67 38.08 67 34 67 C33.970271 65.5773584 33.970271 65.5773584 33.93994141 64.12597656 C33.86174239 60.59967636 33.77504634 57.07379639 33.68261719 53.54785156 C33.64438734 52.02319342 33.609524 50.49844693 33.578125 48.97363281 C33.53234338 46.77897619 33.47437234 44.5849246 33.4140625 42.390625 C33.40251129 41.7113092 33.39096008 41.03199341 33.37905884 40.33209229 C33.26823869 36.76057191 33.07507339 33.9708701 31 31 C26.76189465 28.17459644 22.97584134 28.22227679 18 29 C14.88482038 31.2251283 13.36320093 32.62190533 12.3828125 36.34179688 C11.99163953 39.05805405 11.90235915 41.60081147 11.9375 44.34375 C11.94523438 45.34277344 11.95296875 46.34179688 11.9609375 47.37109375 C11.97382812 48.40363281 11.98671875 49.43617188 12 50.5 C12.02561834 52.55202918 12.04661256 54.60412242 12.0625 56.65625 C12.07410156 57.56181641 12.08570313 58.46738281 12.09765625 59.40039062 C12 62 12 62 11 67 C7.37 67 3.74 67 0 67 C0 44.89 0 22.78 0 0 Z " fill="#5282F6" transform="translate(581,123)"/>
<path d="M0 0 C3.63 0 7.26 0 11 0 C11.33 7.26 11.66 14.52 12 22 C13.32 21.01 14.64 20.02 16 19 C22.18555992 16.93814669 29.53739529 16.90270533 35.5 19.6875 C40.8315145 22.8334247 43.62286439 27.38475137 46 33 C46.24713645 35.75907028 46.35266646 38.27547925 46.29296875 41.0234375 C46.28872391 41.76961334 46.28447906 42.51578918 46.28010559 43.28457642 C46.26342382 45.64843098 46.22579339 48.01140676 46.1875 50.375 C46.17243949 51.9856647 46.15875348 53.59634287 46.14648438 55.20703125 C46.11355504 59.13835515 46.06184762 63.06902901 46 67 C42.04 67 38.08 67 34 67 C33.99589111 66.0620459 33.99178223 65.1240918 33.98754883 64.15771484 C33.96047998 60.65695466 33.91130659 57.15792275 33.84741211 53.65771484 C33.82430333 52.14675596 33.80985312 50.63563762 33.80444336 49.12451172 C33.7951003 46.94398465 33.75400369 44.76594036 33.70703125 42.5859375 C33.6913208 41.2767334 33.67561035 39.9675293 33.65942383 38.61865234 C32.80498707 33.92984761 31.36381819 32.31414221 28 29 C24.56815509 27.95435975 21.48827605 28.22673684 18 29 C14.39050351 31.65187497 12.7463702 33.64601519 12 38 C11.92991578 40.15911956 11.91562664 42.32032278 11.9375 44.48046875 C11.94523437 45.72634766 11.95296875 46.97222656 11.9609375 48.25585938 C11.97382813 49.55330078 11.98671875 50.85074219 12 52.1875 C12.02537452 54.7642822 12.04645315 57.34111158 12.0625 59.91796875 C12.07410156 61.06031982 12.08570313 62.2026709 12.09765625 63.37963867 C12 66 12 66 11 67 C7.37 67 3.74 67 0 67 C0 44.89 0 22.78 0 0 Z " fill="#5081F5" transform="translate(366,123)"/>
<path d="M0 0 C4.62565384 2.9435979 6.22270871 5.84585525 8 11 C8.84430525 15.18607556 9.12838574 19.15574558 9.1328125 23.421875 C9.13410156 24.61167969 9.13539063 25.80148438 9.13671875 27.02734375 C9.13285156 28.25582031 9.12898438 29.48429687 9.125 30.75 C9.13080078 32.61591797 9.13080078 32.61591797 9.13671875 34.51953125 C9.13542969 35.70417969 9.13414062 36.88882813 9.1328125 38.109375 C9.13168457 39.19186523 9.13055664 40.27435547 9.12939453 41.38964844 C9 44 9 44 8 46 C4.04 46 0.08 46 -4 46 C-4.33 45.01 -4.66 44.02 -5 43 C-5.5775 43.474375 -6.155 43.94875 -6.75 44.4375 C-11.32409465 47.61395462 -16.60556561 47.49603994 -22 47 C-26.90720351 45.82710074 -30.92146791 44.14417782 -34 40 C-36.17901459 35.33068302 -36.17923879 31.98908717 -35 27 C-33.22955356 22.77060016 -30.86499087 20.98847965 -27.01171875 18.796875 C-22.02928876 16.82325225 -16.91469546 16.88759721 -11.625 16.9375 C-9.75714844 16.95103516 -9.75714844 16.95103516 -7.8515625 16.96484375 C-6.44003906 16.98224609 -6.44003906 16.98224609 -5 17 C-5.26393501 13.56769552 -5.26393501 13.56769552 -6 10 C-10.48324098 7.01117268 -14.73983113 7.51799249 -20 8 C-23.10744845 8.77128921 -26.04423139 9.77390339 -29 11 C-30.32 9.02 -31.64 7.04 -33 5 C-32.02709424 2.53668542 -31.33637677 1.22517784 -29.109375 -0.265625 C-19.84922982 -4.12912928 -8.8908748 -5.29669137 0 0 Z M-22 28 C-23.79372806 30.31353368 -23.79372806 30.31353368 -24 33 C-23.26929996 35.42182765 -23.26929996 35.42182765 -21 37 C-15.72594106 38.21043976 -11.98853254 38.43626008 -7 36 C-4.99034226 34.40383995 -4.99034226 34.40383995 -4 32 C-3.74936268 28.33285151 -3.74936268 28.33285151 -4 25 C-10.68038113 24.67383311 -16.1904016 24.41535418 -22 28 Z " fill="#5182F6" transform="translate(454,144)"/>
<path d="M0 0 C4.53795075 3.52951725 6.77864982 7.44396699 8 13 C8.36225775 18.67290452 8.2834871 24.31925415 8.1875 30 C8.17242973 31.55337248 8.15874546 33.10675906 8.14648438 34.66015625 C8.11365497 38.44045615 8.06200254 42.22007063 8 46 C4.04 46 0.08 46 -4 46 C-4.33 45.01 -4.66 44.02 -5 43 C-5.5775 43.474375 -6.155 43.94875 -6.75 44.4375 C-11.57413285 47.78759225 -17.32568481 47.48161626 -23 47 C-29.02973016 45.12188733 -32.66424134 42.18512544 -36.375 37.125 C-37.35607605 33.78934142 -36.80974963 31.35467706 -36 28 C-33.49651328 23.51098933 -31.18285371 20.12211472 -26.23828125 18.37890625 C-19.25244224 16.50654644 -12.17689648 16.81623878 -5 17 C-5.33 14.36 -5.66 11.72 -6 9 C-12.18854911 7.60981868 -19.23351684 6.46960506 -24.9375 9.625 C-25.9584375 10.305625 -25.9584375 10.305625 -27 11 C-30.36105951 10.03969728 -31.01133714 8.98299429 -33 6 C-32.88671875 3.45703125 -32.88671875 3.45703125 -32 1 C-23.42235549 -5.52199986 -9.12573918 -4.81175339 0 0 Z M-24 29 C-23.71269945 31.33944736 -23.38063221 33.6739143 -23 36 C-18.16628471 38.73910533 -13.23156547 38.34979682 -8 37 C-5.20502816 35.04860113 -5.20502816 35.04860113 -4 32 C-3.66534111 28.29059225 -3.66534111 28.29059225 -4 25 C-10.22156913 24.64930612 -19.18639394 24.18639394 -24 29 Z " fill="#5082F7" transform="translate(668,144)"/>
<path d="M0 0 C2.02350826 1.1840456 3.68161356 2.17349866 5.28125 3.88671875 C5.77625 5.86671875 5.77625 5.86671875 6.28125 7.88671875 C2.81625 10.85671875 2.81625 10.85671875 -0.71875 13.88671875 C-1.6675 13.06171875 -2.61625 12.23671875 -3.59375 11.38671875 C-8.12960621 8.14155333 -12.3151414 8.06104002 -17.71875 8.88671875 C-21.21690233 10.22643666 -22.37809586 11.40510427 -24.53125 14.44921875 C-26.32985558 19.6557086 -26.75024738 24.71063925 -25.02734375 30.015625 C-23.46869199 33.13945008 -22.00958425 34.73807013 -18.90625 36.32421875 C-12.76026106 37.40880503 -8.94163168 37.46812333 -3.71875 33.88671875 C-3.05875 33.88671875 -2.39875 33.88671875 -1.71875 33.88671875 C-1.71875 33.22671875 -1.71875 32.56671875 -1.71875 31.88671875 C0.66073772 32.0629771 1.98350849 32.58391648 3.66015625 34.2890625 C4.90240486 35.79320967 6.09501056 37.33801726 7.28125 38.88671875 C6.17889064 39.84713046 5.07428376 40.80496282 3.96875 41.76171875 C3.35386719 42.29539063 2.73898437 42.8290625 2.10546875 43.37890625 C-4.13249911 48.53491394 -10.91610372 48.48527792 -18.71875 47.88671875 C-25.03602276 46.56495091 -30.24757272 44.35479141 -34.09375 38.95703125 C-38.80605717 31.64760024 -39.45332897 25.56078826 -38.71875 16.88671875 C-36.83605556 10.19486183 -33.38042126 4.33448891 -27.34375 0.69921875 C-18.62326968 -4.1569729 -9.14072958 -3.74297116 0 0 Z " fill="#5081F5" transform="translate(568.71875,143.11328125)"/>
<path d="M0 0 C0 3.3 0 6.6 0 10 C0.70125 9.835 1.4025 9.67 2.125 9.5 C5.15411499 8.97319739 7.93125684 8.86051167 11 9 C12 10 12 10 12.09765625 12.06640625 C12.08605469 12.89011719 12.07445312 13.71382812 12.0625 14.5625 C12.05347656 15.38878906 12.04445313 16.21507812 12.03515625 17.06640625 C12.02355469 17.70449219 12.01195312 18.34257812 12 19 C8.0186217 20.3271261 4.14954773 20.06915913 0 20 C0.13810905 24.47944035 0.28677416 28.95846783 0.4375 33.4375 C0.47681641 34.71689453 0.51613281 35.99628906 0.55664062 37.31445312 C0.59853516 38.52939453 0.64042969 39.74433594 0.68359375 40.99609375 C0.72025146 42.12200928 0.75690918 43.2479248 0.79467773 44.40795898 C0.71218045 46.92853441 0.71218045 46.92853441 2 48 C4.01964199 48.07244053 6.04167124 48.08377188 8.0625 48.0625 C9.16722656 48.05347656 10.27195312 48.04445312 11.41015625 48.03515625 C12.69212891 48.01775391 12.69212891 48.01775391 14 48 C14.9765625 54.0546875 14.9765625 54.0546875 15 56 C11.79092621 59.20907379 8.55887731 58.9639434 4.125 59.25 C-1.1662595 59.17013193 -5.27612328 57.40632048 -9.375 54.0625 C-12.46500526 50.14057025 -12.11898751 46.12915192 -12.09765625 41.265625 C-12.09443359 39.97011719 -12.09121094 38.67460937 -12.08789062 37.33984375 C-12.07953598 35.97656183 -12.07107104 34.61328058 -12.0625 33.25 C-12.05748168 31.87109535 -12.05291935 30.49218896 -12.04882812 29.11328125 C-12.03704093 25.74214341 -12.02058635 22.37109372 -12 19 C-13.7015625 19.0309375 -13.7015625 19.0309375 -15.4375 19.0625 C-19 19 -19 19 -20 18 C-20.25 14.5625 -20.25 14.5625 -20 11 C-17 9 -17 9 -13 9 C-12.34 6.03 -11.68 3.06 -11 0 C-2.25 -1.125 -2.25 -1.125 0 0 Z " fill="#5081F5" transform="translate(698,132)"/>
<path d="M0 0 C3.3 0 6.6 0 10 0 C11.125 7.75 11.125 7.75 10 10 C10.69867188 9.91621094 11.39734375 9.83242187 12.1171875 9.74609375 C13.02726562 9.64425781 13.93734375 9.54242188 14.875 9.4375 C15.77992188 9.33308594 16.68484375 9.22867188 17.6171875 9.12109375 C20 9 20 9 22 10 C22.02689216 11.47906892 22.04634621 12.95827483 22.0625 14.4375 C22.07410156 15.26121094 22.08570313 16.08492187 22.09765625 16.93359375 C22 19 22 19 21 20 C19.31391034 20.07205511 17.62499341 20.08386068 15.9375 20.0625 C15.01839844 20.05347656 14.09929687 20.04445312 13.15234375 20.03515625 C12.44207031 20.02355469 11.73179687 20.01195312 11 20 C10.94203868 24.10410755 10.90641687 28.20811016 10.875 32.3125 C10.85824219 33.47974609 10.84148437 34.64699219 10.82421875 35.84960938 C10.81777344 36.96787109 10.81132812 38.08613281 10.8046875 39.23828125 C10.79421387 40.26993408 10.78374023 41.30158691 10.77294922 42.36450195 C10.80702485 45.23187592 10.80702485 45.23187592 13 48 C15.66653905 48.36460453 15.66653905 48.36460453 18.625 48.1875 C19.62789063 48.16042969 20.63078125 48.13335937 21.6640625 48.10546875 C22.82035156 48.05326172 22.82035156 48.05326172 24 48 C24.66 50.64 25.32 53.28 26 56 C20.19474633 58.90262684 15.09302581 60.2174128 8.71484375 58.3203125 C6.78685599 57.60624296 4.88973896 56.80988813 3 56 C3 55.34 3 54.68 3 54 C2.34 54 1.68 54 1 54 C-1.13054587 50.50675912 -1.30231448 47.60684255 -1.4140625 43.5546875 C-1.45273437 42.31332031 -1.49140625 41.07195312 -1.53125 39.79296875 C-1.5621875 38.50003906 -1.593125 37.20710938 -1.625 35.875 C-1.66367187 34.57433594 -1.70234375 33.27367187 -1.7421875 31.93359375 C-2 23.08510045 -2 23.08510045 -2 20 C-3.134375 19.855625 -4.26875 19.71125 -5.4375 19.5625 C-9 19 -9 19 -10 18 C-10.25 14.5625 -10.25 14.5625 -10 11 C-6.77208445 8.8480563 -5.71599191 8.79913557 -2 9 C-1.34 6.03 -0.68 3.06 0 0 Z " fill="#5182F7" transform="translate(476,132)"/>
<path d="M0 0 C3.66900829 2.63211465 4.84009531 4.08854326 5.625 8.5625 C5 12 5 12 2.875 14.4375 C-0.53462745 16.29055839 -2.18195263 16.71588388 -6 16 C-8.9375 14 -8.9375 14 -11 11 C-11.32575603 8.1131276 -10.96988093 5.73222554 -10 3 C-7.14177021 -0.3875316 -4.27949922 -0.69869375 0 0 Z " fill="#5183F7" transform="translate(518,175)"/>
<path d="M0 0 C2.97 0 5.94 0 9 0 C10.125 7.75 10.125 7.75 9 10 C9.69867188 9.91621094 10.39734375 9.83242187 11.1171875 9.74609375 C12.02726562 9.64425781 12.93734375 9.54242188 13.875 9.4375 C14.77992188 9.33308594 15.68484375 9.22867188 16.6171875 9.12109375 C19 9 19 9 21 10 C21.02689216 11.47906892 21.04634621 12.95827483 21.0625 14.4375 C21.07410156 15.26121094 21.08570313 16.08492187 21.09765625 16.93359375 C21 19 21 19 20 20 C18.31391034 20.07205511 16.62499341 20.08386068 14.9375 20.0625 C14.01839844 20.05347656 13.09929687 20.04445312 12.15234375 20.03515625 C11.44207031 20.02355469 10.73179687 20.01195312 10 20 C10.01047363 20.68626465 10.02094727 21.3725293 10.03173828 22.07958984 C10.07321874 25.17802289 10.09930069 28.27639761 10.125 31.375 C10.14175781 32.45523438 10.15851563 33.53546875 10.17578125 34.6484375 C10.18222656 35.6796875 10.18867188 36.7109375 10.1953125 37.7734375 C10.20578613 38.72653809 10.21625977 39.67963867 10.22705078 40.66162109 C10 43 10 43 8 45 C8 36.09 8 27.18 8 18 C11.96 18 15.92 18 20 18 C20 15.69 20 13.38 20 11 C16.04 11 12.08 11 8 11 C8 7.7 8 4.4 8 1 C5.36 1 2.72 1 0 1 C0 0.67 0 0.34 0 0 Z " fill="#4A79E1" transform="translate(477,132)"/>
<path d="M0 0 C6.32884728 0.3651258 6.32884728 0.3651258 9.3125 3.1875 C11.044783 6.07463833 12.09686562 8.76376848 13 12 C8.90785226 12 7.80806297 10.39777126 4.8125 7.6875 C3.91144531 6.88699219 3.01039063 6.08648437 2.08203125 5.26171875 C0 3 0 3 0 0 Z " fill="#5386F1" transform="translate(140,178)"/>
<path d="M0 0 C0.99 0 1.98 0 3 0 C2.34 4.95 1.68 9.9 1 15 C0.34 14.67 -0.32 14.34 -1 14 C-2.26968434 9.04413531 -2.51109996 4.57906464 0 0 Z M0 3 C1 5 1 5 1 5 Z " fill="#4A76E0" transform="translate(182,147)"/>
<path d="M0 0 C0.33 0 0.66 0 1 0 C1.042721 1.66611905 1.04063832 3.33382885 1 5 C0 6 0 6 -1.84765625 6.09765625 C-3.8984375 6.06510417 -5.94921875 6.03255208 -8 6 C-6 4 -6 4 -3.375 3.875 C-2.59125 3.91625 -1.8075 3.9575 -1 4 C-0.67 2.68 -0.34 1.36 0 0 Z " fill="#507DE2" transform="translate(475,137)"/>
<path d="M0 0 C1.485 0.99 1.485 0.99 3 2 C3.6875 5.625 3.6875 5.625 4 9 C3.34 8.34 2.68 7.68 2 7 C2 6.01 2 5.02 2 4 C1.34 4 0.68 4 0 4 C-0.33 4.66 -0.66 5.32 -1 6 C-0.67 4.02 -0.34 2.04 0 0 Z " fill="#4976DE" transform="translate(321,157)"/>
</svg>
